<?xml version="1.0" encoding="UTF-8" standalone="no"?>
<!DOCTYPE svg PUBLIC "-//W3C//DTD SVG 1.1//EN" "http://www.w3.org/Graphics/SVG/1.1/DTD/svg11.dtd">
<svg width="100%" height="100%" viewBox="0 0 500 500" version="1.1" xmlns="http://www.w3.org/2000/svg" xmlns:xlink="http://www.w3.org/1999/xlink" xml:space="preserve" xmlns:serif="http://www.serif.com/" style="fill-rule:evenodd;clip-rule:evenodd;stroke-linejoin:round;stroke-miterlimit:2;">
    <g transform="matrix(1.49258,0,0,1.49258,-195.377,-123.144)">
        <g transform="matrix(1,0,0,1,409.343,214.612)">
            <path d="M0,12.382L-22.655,22.919L-39.778,-10.537L0,12.382Z" style="fill:white;fill-rule:nonzero;"/>
        </g>
        <g transform="matrix(0.851495,-0.524363,-0.524363,-0.851495,259.979,238.411)">
            <path d="M-3.146,2.764L15.106,2.764L6.297,13.242L-6.598,14.185L-3.146,2.764Z" style="fill:white;fill-rule:nonzero;"/>
        </g>
        <g transform="matrix(1,0,0,1,212.736,136.812)">
            <path d="M0,27.573L7.727,-0.351L-20.021,27.924L0,27.573Z" style="fill:white;fill-rule:nonzero;"/>
        </g>
        <g transform="matrix(1,0,0,1,239.957,136.461)">
            <path d="M0,-16.684L-0.878,-7.727L-19.494,0L0,-16.684Z" style="fill:white;fill-rule:nonzero;"/>
        </g>
        <g transform="matrix(1,0,0,1,241.889,175.098)">
            <path d="M0,-14.401L-7.903,-25.992L-20.372,11.591L0,-14.401Z" style="fill:white;fill-rule:nonzero;"/>
        </g>
        <g transform="matrix(0.362045,0.932161,0.932161,-0.362045,277.713,184.215)">
            <path d="M-25.194,-16.401L17.008,-16.401L23.011,-39.268L3.699,-45.332L-25.194,-16.401Z" style="fill:white;fill-rule:nonzero;"/>
        </g>
        <g transform="matrix(1,0,0,1,323.552,220.584)">
            <path d="M0,-70.775L-34.07,-68.492L-23.006,0L0,-70.775Z" style="fill:white;fill-rule:nonzero;"/>
        </g>
        <g transform="matrix(1,0,0,1,352.442,226.994)">
            <path d="M0,-15.63L1.054,0L-51.896,-6.41L0,-15.63Z" style="fill:white;fill-rule:nonzero;"/>
        </g>
        <g transform="matrix(1,0,0,1,358.501,211.364)">
            <path d="M0,-50.103L11.064,-7.289L-6.059,0L0,-50.103Z" style="fill:white;fill-rule:nonzero;"/>
        </g>
        <g transform="matrix(1,0,0,1,341.905,280.383)">
            <path d="M0,-31.612L-18.352,0L-36.09,-30.295L0,-31.612Z" style="fill:white;fill-rule:nonzero;"/>
        </g>
        <g transform="matrix(0.881453,0.472272,0.472272,-0.881453,335.127,272.73)">
            <path d="M-6.589,-12.212L36.92,-12.212L43.922,-17.426L44.47,-28.489L-6.589,-12.212Z" style="fill:white;fill-rule:nonzero;"/>
        </g>
        <g transform="matrix(1,0,0,1,360.872,359.939)">
            <path d="M0,-41.095L-16.201,0L-27.133,-14.752L0,-41.095Z" style="fill:white;fill-rule:nonzero;"/>
        </g>
        <g transform="matrix(1,0,0,1,411.45,288.285)">
            <path d="M0,-35.299L-1.904,0L-21.47,-21.337L0,-35.299Z" style="fill:white;fill-rule:nonzero;"/>
        </g>
        <g transform="matrix(-0.624701,-0.780864,-0.780864,0.624701,231.033,213.054)">
            <path d="M-16.83,-10.109L3.411,-10.109L-5.064,8.253L-21.205,12.958L-16.83,-10.109Z" style="fill:white;fill-rule:nonzero;"/>
        </g>
        <g transform="matrix(1,0,0,1,192.715,142.959)">
            <path d="M0,21.777L-7.376,14.05L9.659,0L0,21.777Z" style="fill:white;fill-rule:nonzero;"/>
        </g>
        <g transform="matrix(-0.926802,0.37555,0.37555,0.926802,221.29,169.461)">
            <path d="M-40.619,-30.895L-11.627,-30.895L6.022,-7.917L-19.411,-14.097L-40.619,-30.895Z" style="fill:white;fill-rule:nonzero;"/>
        </g>
        <g transform="matrix(1,0,0,1,241.889,204.075)">
            <path d="M0,-43.378L-5.093,0L-20.372,-17.386L0,-43.378Z" style="fill:white;fill-rule:nonzero;"/>
        </g>
        <g transform="matrix(1,0,0,1,289.482,206.008)">
            <path d="M0,-53.916L-36.178,-39.339L-20.899,0L0,-53.916Z" style="fill:white;fill-rule:nonzero;"/>
        </g>
        <g transform="matrix(1,0,0,1,358.501,209.132)">
            <path d="M0,-47.871L-34.949,-59.323L-57.955,11.452L0,-47.871Z" style="fill:white;fill-rule:nonzero;"/>
        </g>
        <g transform="matrix(1,0,0,1,390.903,174.52)">
            <path d="M0,16.296L-21.338,29.555L-32.402,-13.259L0,16.296Z" style="fill:white;fill-rule:nonzero;"/>
        </g>
        <g transform="matrix(1,0,0,1,353.496,243.678)">
            <path d="M0,-16.684L-52.95,-23.094L-47.681,6.41L0,-16.684Z" style="fill:white;fill-rule:nonzero;"/>
        </g>
        <g transform="matrix(1,0,0,1,341.905,280.383)">
            <path d="M0,-31.612L5.181,-4.479L-18.352,0L0,-31.612Z" style="fill:white;fill-rule:nonzero;"/>
        </g>
        <g transform="matrix(1,0,0,1,341.641,318.844)">
            <path d="M0,-19.819L-1.054,-1.844L19.23,0L0,-19.819Z" style="fill:white;fill-rule:nonzero;"/>
        </g>
        <g transform="matrix(0,1,1,0,356.722,357.239)">
            <path d="M-12.052,-22.984L22.984,-22.984L14.555,-12.052L2.7,-12.052L-12.052,-22.984Z" style="fill:white;fill-rule:nonzero;"/>
        </g>
        <g transform="matrix(1,0,0,1,409.343,252.986)">
            <path d="M0,-25.992L-22.655,-15.455L2.107,0L0,-25.992Z" style="fill:white;fill-rule:nonzero;"/>
        </g>
        <g transform="matrix(1,0,0,1,389.981,299.204)">
            <path d="M0,-32.256L5.137,0L19.566,-10.919L0,-32.256Z" style="fill:white;fill-rule:nonzero;"/>
        </g>
        <g transform="matrix(1,0,0,1,243.526,237.707)">
            <path d="M0,-10.926L12.324,0L-9.365,0L0,-10.926Z" style="fill:white;fill-rule:nonzero;"/>
        </g>
        <g transform="matrix(1,0,0,1,192.715,136.461)">
            <path d="M0,28.275L9.659,6.498L27.748,0L0,28.275Z" style="fill:white;fill-rule:nonzero;"/>
        </g>
        <g transform="matrix(1,0,0,1,233.986,186.689)">
            <path d="M0,-37.583L-12.469,0L-21.25,-22.304L0,-37.583Z" style="fill:white;fill-rule:nonzero;"/>
        </g>
        <g transform="matrix(1,0,0,1,253.304,198.28)">
            <path d="M0,-31.612L-11.415,-37.407L-16.508,5.795L0,-31.612Z" style="fill:white;fill-rule:nonzero;"/>
        </g>
        <g transform="matrix(1,0,0,1,289.482,220.584)">
            <path d="M0,-68.492L11.064,0L-20.899,-14.576L0,-68.492Z" style="fill:white;fill-rule:nonzero;"/>
        </g>
        <g transform="matrix(1,0,0,1,358.501,220.584)">
            <path d="M0,-59.323L-6.059,-9.22L-57.955,0L0,-59.323Z" style="fill:white;fill-rule:nonzero;"/>
        </g>
        <g transform="matrix(1,0,0,1,390.903,226.994)">
            <path d="M0,-36.178L18.44,0L-21.338,-22.919L0,-36.178Z" style="fill:white;fill-rule:nonzero;"/>
        </g>
        <g transform="matrix(1,0,0,1,369.565,226.994)">
            <path d="M0,-22.919L-16.069,0L-17.123,-15.631L0,-22.919Z" style="fill:white;fill-rule:nonzero;"/>
        </g>
        <g transform="matrix(1,0,0,1,353.496,250.088)">
            <path d="M0,-23.094L-47.681,0L-11.591,-1.317L0,-23.094Z" style="fill:white;fill-rule:nonzero;"/>
        </g>
        <g transform="matrix(1,0,0,1,347.085,300.93)">
            <path d="M0,-25.026L14.818,0L-23.533,-20.548L0,-25.026Z" style="fill:white;fill-rule:nonzero;"/>
        </g>
        <g transform="matrix(1,0,0,1,360.872,343.343)">
            <path d="M0,-24.499L-20.284,-26.343L-27.133,1.844L0,-24.499Z" style="fill:white;fill-rule:nonzero;"/>
        </g>
        <g transform="matrix(1,0,0,1,411.45,251.493)">
            <path d="M0,1.493L-24.763,-13.962L-21.47,15.455L0,1.493Z" style="fill:white;fill-rule:nonzero;"/>
        </g>
        <g transform="matrix(1,0,0,1,409.547,347.031)">
            <path d="M0,-58.746L-0.204,0C-0.204,0 -14.165,-28.215 -14.429,-47.827L0,-58.746Z" style="fill:white;fill-rule:nonzero;"/>
        </g>
    </g>
</svg>
