<?xml version="1.0" encoding="UTF-8" standalone="no"?>
<!DOCTYPE svg PUBLIC "-//W3C//DTD SVG 1.1//EN" "http://www.w3.org/Graphics/SVG/1.1/DTD/svg11.dtd">
<svg width="100%" height="100%" viewBox="0 0 500 500" version="1.1" xmlns="http://www.w3.org/2000/svg" xmlns:xlink="http://www.w3.org/1999/xlink" xml:space="preserve" xmlns:serif="http://www.serif.com/" style="fill-rule:evenodd;clip-rule:evenodd;stroke-linejoin:round;stroke-miterlimit:2;">
    <g transform="matrix(5.59146,0,0,5.59146,-1162.02,-1059.11)">
        <g transform="matrix(1,0,0,1,289.007,221.678)">
            <path d="M0,4.441L-7.233,7.654L-12.794,-3.213L0,4.441Z" style="fill:white;fill-rule:nonzero;"/>
        </g>
        <g transform="matrix(0.851498,-0.524358,-0.524358,-0.851498,239.672,229.41)">
            <path d="M-1.025,0.849L4.755,0.849L1.813,4.348L-2.157,4.638L-1.025,0.849Z" style="fill:white;fill-rule:nonzero;"/>
        </g>
        <g transform="matrix(1,0,0,1,233.54,208.763)">
            <path d="M0,-4.308L-2.509,-8.036L-6.681,3.728L0,-4.308Z" style="fill:white;fill-rule:nonzero;"/>
        </g>
        <g transform="matrix(0.376092,0.926582,0.926582,-0.376092,245.652,210.938)">
            <path d="M-8.048,-5.817L6.093,-5.817L7.932,-13.695L1.144,-14.649L-8.048,-5.817Z" style="fill:white;fill-rule:nonzero;"/>
        </g>
        <g transform="matrix(1,0,0,1,259.912,223.329)">
            <path d="M0,-23.228L-9.73,-22.281L-7.246,0L0,-23.228Z" style="fill:white;fill-rule:nonzero;"/>
        </g>
        <g transform="matrix(1,0,0,1,270.108,225.981)">
            <path d="M0,-5.337L0.506,0L-16.661,-1.73L0,-5.337Z" style="fill:white;fill-rule:nonzero;"/>
        </g>
        <g transform="matrix(1,0,0,1,272.406,219.773)">
            <path d="M0,-14.963L3.144,-1.827L-1.568,0L0,-14.963Z" style="fill:white;fill-rule:nonzero;"/>
        </g>
        <g transform="matrix(1,0,0,1,266.137,243.64)">
            <path d="M0,-8.521L-5.444,0L-11.18,-8.169L0,-8.521Z" style="fill:white;fill-rule:nonzero;"/>
        </g>
        <g transform="matrix(0.889976,0.456007,0.456007,-0.889976,265.218,242.743)">
            <path d="M-1.786,-3.504L11.328,-3.504L13.524,-5.457L13.008,-8.178L-1.786,-3.504Z" style="fill:white;fill-rule:nonzero;"/>
        </g>
        <g transform="matrix(1,0,0,1,272.76,269.756)">
            <path d="M0,-12.89L-4.847,0L-8.421,-4.714L0,-12.89Z" style="fill:white;fill-rule:nonzero;"/>
        </g>
        <g transform="matrix(1,0,0,1,289.997,245.586)">
            <path d="M0,-10.228L-0.552,0L-7.074,-5.893L0,-10.228Z" style="fill:white;fill-rule:nonzero;"/>
        </g>
        <g transform="matrix(-0.528451,-0.848964,-0.848964,0.528451,230.264,220.831)">
            <path d="M-5.227,-3.08L1.337,-3.08L-2.036,3.106L-7.573,4.032L-5.227,-3.08Z" style="fill:white;fill-rule:nonzero;"/>
        </g>
        <g transform="matrix(-0.92678,0.375605,0.375605,0.92678,226.751,205.82)">
            <path d="M-11.74,-8.929L-3.361,-8.929L1.741,-2.288L-5.61,-4.074L-11.74,-8.929Z" style="fill:white;fill-rule:nonzero;"/>
        </g>
        <g transform="matrix(1,0,0,1,248.794,218.584)">
            <path d="M0,-17.394L-10.957,-12.915L-5.599,0L0,-17.394Z" style="fill:white;fill-rule:nonzero;"/>
        </g>
        <g transform="matrix(1,0,0,1,271.635,220.064)">
            <path d="M0,-16.427L-10.997,-19.854L-18.707,3.427L0,-16.427Z" style="fill:white;fill-rule:nonzero;"/>
        </g>
        <g transform="matrix(1,0,0,1,282.802,208.853)">
            <path d="M0,4.543L-6.745,8.878L-10.035,-4.335L0,4.543Z" style="fill:white;fill-rule:nonzero;"/>
        </g>
        <g transform="matrix(1,0,0,1,270.501,232.482)">
            <path d="M0,-6.132L-17.027,-7.724L-15.779,1.592L0,-6.132Z" style="fill:white;fill-rule:nonzero;"/>
        </g>
        <g transform="matrix(1,0,0,1,266.229,243.99)">
            <path d="M0,-7.908L2.652,-1.495L-5.206,0L0,-7.908Z" style="fill:white;fill-rule:nonzero;"/>
        </g>
        <g transform="matrix(1,0,0,1,266.702,256.104)">
            <path d="M0,-5.718L-0.303,-0.546L5.914,0L0,-5.718Z" style="fill:white;fill-rule:nonzero;"/>
        </g>
        <g transform="matrix(-0.0145531,0.999894,0.999894,0.0145531,271.68,269.667)">
            <path d="M-4.054,-7.479L7.421,-7.479L4.554,-3.869L0.522,-3.928L-4.054,-7.479Z" style="fill:white;fill-rule:nonzero;"/>
        </g>
        <g transform="matrix(1,0,0,1,289.34,234.357)">
            <path d="M0,-7.947L-7.423,-4.684L0.704,0L0,-7.947Z" style="fill:white;fill-rule:nonzero;"/>
        </g>
        <g transform="matrix(1,0,0,1,283.023,249.208)">
            <path d="M0,-8.736L1.567,0L6.356,-3.119L0,-8.736Z" style="fill:white;fill-rule:nonzero;"/>
        </g>
        <g transform="matrix(1,0,0,1,234.152,229.39)">
            <path d="M0,-3.487L3.934,0L-2.913,0L0,-3.487Z" style="fill:white;fill-rule:nonzero;"/>
        </g>
        <g transform="matrix(1,0,0,1,230.65,211.986)">
            <path d="M0,-11.703L-4.061,0L-6.179,-7.163L0,-11.703Z" style="fill:white;fill-rule:nonzero;"/>
        </g>
        <g transform="matrix(1,0,0,1,236.676,215.885)">
            <path d="M0,-10.244L-2.481,-10.857L-4.316,0.613L0,-10.244Z" style="fill:white;fill-rule:nonzero;"/>
        </g>
        <g transform="matrix(1,0,0,1,249.528,223.204)">
            <path d="M0,-22.155L2.666,0L-5.604,-4.557L0,-22.155Z" style="fill:white;fill-rule:nonzero;"/>
        </g>
        <g transform="matrix(1,0,0,1,272.155,223.726)">
            <path d="M0,-19.802L-2.053,-3.834L-18.707,0L0,-19.802Z" style="fill:white;fill-rule:nonzero;"/>
        </g>
        <g transform="matrix(1,0,0,1,283.182,225.812)">
            <path d="M0,-12.08L6.158,0L-6.938,-7.768L0,-12.08Z" style="fill:white;fill-rule:nonzero;"/>
        </g>
        <g transform="matrix(1,0,0,1,276.057,225.443)">
            <path d="M0,-7.283L-5.001,0L-5.366,-4.999L0,-7.283Z" style="fill:white;fill-rule:nonzero;"/>
        </g>
        <g transform="matrix(1,0,0,1,270.501,234.864)">
            <path d="M0,-7.839L-15.731,0L-4.031,-0.427L0,-7.839Z" style="fill:white;fill-rule:nonzero;"/>
        </g>
        <g transform="matrix(1,0,0,1,269.015,250.502)">
            <path d="M0,-7.631L4.484,0L-7.642,-6.133L0,-7.631Z" style="fill:white;fill-rule:nonzero;"/>
        </g>
        <g transform="matrix(1,0,0,1,272.725,264.235)">
            <path d="M0,-7.754L-6.406,-8.112L-8.464,0.358L0,-7.754Z" style="fill:white;fill-rule:nonzero;"/>
        </g>
        <g transform="matrix(1,0,0,1,290.01,234.427)">
            <path d="M0,0.491L-8.084,-4.237L-7.136,4.728L0,0.491Z" style="fill:white;fill-rule:nonzero;"/>
        </g>
        <g transform="matrix(1,0,0,1,289.406,265.896)">
            <path d="M0,-19.153L-0.066,0C-0.066,0 -4.728,-9.422 -4.816,-15.971L0,-19.153Z" style="fill:white;fill-rule:nonzero;"/>
        </g>
        <g transform="matrix(1,0,0,1,223.767,196.45)">
            <path d="M0,8.106L2.272,-0.103L-5.886,8.209L0,8.106Z" style="fill:white;fill-rule:nonzero;"/>
        </g>
        <g transform="matrix(1,0,0,1,232.293,195.644)">
            <path d="M0,-4.374L-0.23,-2.026L-5.111,0L0,-4.374Z" style="fill:white;fill-rule:nonzero;"/>
        </g>
        <g transform="matrix(1,0,0,1,217.068,198.365)">
            <path d="M0,6.046L-2.048,3.9L2.682,0L0,6.046Z" style="fill:white;fill-rule:nonzero;"/>
        </g>
        <g transform="matrix(1,0,0,1,233.744,216.399)">
            <path d="M0,-11.701L-1.733,0L-6.54,-3.582L0,-11.701Z" style="fill:white;fill-rule:nonzero;"/>
        </g>
        <g transform="matrix(1,0,0,1,217.385,196.473)">
            <path d="M0,8.059L2.753,1.852L7.909,0L0,8.059Z" style="fill:white;fill-rule:nonzero;"/>
        </g>
    </g>
</svg>
