<?xml version="1.0" encoding="UTF-8" standalone="no"?>
<!DOCTYPE svg PUBLIC "-//W3C//DTD SVG 1.1//EN" "http://www.w3.org/Graphics/SVG/1.1/DTD/svg11.dtd">
<svg width="100%" height="100%" viewBox="0 0 500 500" version="1.1" xmlns="http://www.w3.org/2000/svg" xmlns:xlink="http://www.w3.org/1999/xlink" xml:space="preserve" xmlns:serif="http://www.serif.com/" style="fill-rule:evenodd;clip-rule:evenodd;stroke-linejoin:round;stroke-miterlimit:2;">
    <g transform="matrix(0.925884,0,0,0.925884,4.39736,11.9525)">
        <g transform="matrix(2.39108,0,0,2.39108,-185.456,-133.761)">
            <g transform="matrix(1.19686,-0.737044,-0.737044,-1.19686,196.003,233.71)">
                <path d="M-3.146,2.764L15.106,2.764L6.297,13.242L-6.598,14.185L-3.146,2.764Z" style="fill:rgb(223,223,223);fill-rule:nonzero;"/>
            </g>
            <g transform="matrix(1.4056,0,0,1.4056,129.598,90.9034)">
                <path d="M0,27.573L7.727,-0.351L-20.021,27.924L0,27.573Z" style="fill:rgb(223,223,223);fill-rule:nonzero;"/>
            </g>
            <g transform="matrix(1.4056,0,0,1.4056,170.575,144.718)">
                <path d="M0,-14.401L-7.903,-25.992L-20.372,11.591L0,-14.401Z" style="fill:rgb(223,223,223);fill-rule:nonzero;"/>
            </g>
            <g transform="matrix(0.508889,1.31024,1.31024,-0.508889,220.931,157.532)">
                <path d="M-25.194,-16.401L17.008,-16.401L23.011,-39.268L3.699,-45.332L-25.194,-16.401Z" style="fill:rgb(223,223,223);fill-rule:nonzero;"/>
            </g>
            <g transform="matrix(1.4056,0,0,1.4056,285.362,208.652)">
                <path d="M0,-70.775L-34.07,-68.492L-23.006,0L0,-70.775Z" style="fill:rgb(223,223,223);fill-rule:nonzero;"/>
            </g>
            <g transform="matrix(1.4056,0,0,1.4056,325.969,217.662)">
                <path d="M0,-15.63L1.054,0L-51.896,-6.41L0,-15.63Z" style="fill:rgb(223,223,223);fill-rule:nonzero;"/>
            </g>
            <g transform="matrix(1.4056,0,0,1.4056,311.158,292.706)">
                <path d="M0,-31.612L-18.352,0L-36.09,-30.295L0,-31.612Z" style="fill:rgb(223,223,223);fill-rule:nonzero;"/>
            </g>
            <g transform="matrix(1.4056,0,0,1.4056,167.86,90.4105)">
                <path d="M0,-16.684L-0.878,-7.727L-19.494,0L0,-16.684Z" style="fill:rgb(223,223,223);fill-rule:nonzero;"/>
            </g>
        </g>
        <g transform="matrix(2.39108,0,0,2.39108,-185.456,-133.761)">
            <g transform="matrix(-0.878078,-1.09758,-1.09758,0.878078,155.316,198.069)">
                <path d="M-16.83,-10.109L3.411,-10.109L-5.064,8.253L-21.205,12.958L-16.83,-10.109Z" style="fill:white;fill-rule:nonzero;"/>
            </g>
            <g transform="matrix(1.4056,0,0,1.4056,101.457,99.5439)">
                <path d="M0,21.777L-7.376,14.05L9.659,0L0,21.777Z" style="fill:white;fill-rule:nonzero;"/>
            </g>
            <g transform="matrix(-1.30271,0.527872,0.527872,1.30271,141.622,136.794)">
                <path d="M-40.619,-30.895L-11.627,-30.895L6.022,-7.917L-19.411,-14.097L-40.619,-30.895Z" style="fill:white;fill-rule:nonzero;"/>
            </g>
            <g transform="matrix(1.4056,0,0,1.4056,170.575,185.448)">
                <path d="M0,-43.378L-5.093,0L-20.372,-17.386L0,-43.378Z" style="fill:white;fill-rule:nonzero;"/>
            </g>
            <g transform="matrix(1.4056,0,0,1.4056,237.472,188.164)">
                <path d="M0,-53.916L-36.178,-39.339L-20.899,0L0,-53.916Z" style="fill:white;fill-rule:nonzero;"/>
            </g>
            <g transform="matrix(1.4056,0,0,1.4056,334.485,192.556)">
                <path d="M0,-47.871L-34.949,-59.323L-57.955,11.452L0,-47.871Z" style="fill:white;fill-rule:nonzero;"/>
            </g>
            <g transform="matrix(1.4056,0,0,1.4056,327.45,241.114)">
                <path d="M0,-16.684L-52.95,-23.094L-47.681,6.41L0,-16.684Z" style="fill:white;fill-rule:nonzero;"/>
            </g>
            <g transform="matrix(1.4056,0,0,1.4056,311.158,292.706)">
                <path d="M0,-31.612L5.181,-4.479L-18.352,0L0,-31.612Z" style="fill:white;fill-rule:nonzero;"/>
            </g>
            <g transform="matrix(1.4056,0,0,1.4056,101.457,90.4103)">
                <path d="M0,28.275L9.659,6.498L27.748,0L0,28.275Z" style="fill:white;fill-rule:nonzero;"/>
            </g>
        </g>
        <g transform="matrix(2.39108,0,0,2.39108,-185.456,-133.761)">
            <g transform="matrix(1.4056,0,0,1.4056,172.877,232.721)">
                <path d="M0,-10.926L12.324,0L-9.365,0L0,-10.926Z" style="fill:rgb(191,191,191);fill-rule:nonzero;"/>
            </g>
            <g transform="matrix(1.4056,0,0,1.4056,159.467,161.01)">
                <path d="M0,-37.583L-12.469,0L-21.25,-22.304L0,-37.583Z" style="fill:rgb(191,191,191);fill-rule:nonzero;"/>
            </g>
            <g transform="matrix(1.4056,0,0,1.4056,186.621,177.303)">
                <path d="M0,-31.612L-11.415,-37.407L-16.508,5.795L0,-31.612Z" style="fill:rgb(191,191,191);fill-rule:nonzero;"/>
            </g>
            <g transform="matrix(1.4056,0,0,1.4056,237.472,208.652)">
                <path d="M0,-68.492L11.064,0L-20.899,-14.576L0,-68.492Z" style="fill:rgb(191,191,191);fill-rule:nonzero;"/>
            </g>
            <g transform="matrix(1.4056,0,0,1.4056,334.485,208.653)">
                <path d="M0,-59.323L-6.059,-9.22L-57.955,0L0,-59.323Z" style="fill:rgb(191,191,191);fill-rule:nonzero;"/>
            </g>
            <g transform="matrix(1.4056,0,0,1.4056,327.45,250.124)">
                <path d="M0,-23.094L-47.681,0L-11.591,-1.317L0,-23.094Z" style="fill:rgb(191,191,191);fill-rule:nonzero;"/>
            </g>
        </g>
    </g>
</svg>
